<?xml version="1.0" encoding="UTF-8"?>
<!-- Created with Inkscape (http://www.inkscape.org/) -->
<svg width="348.71" height="175.05" version="1.1" viewBox="0 0 92.262 46.314" xmlns="http://www.w3.org/2000/svg">
 <g transform="translate(-175.42 -108.48)">
  <g transform="matrix(2.3157 0 0 2.3157 -320.51 -276.48)" stroke-width=".26458">
   <path d="m234.16 176.24a10 10 0 0 1-10 10 10 10 0 0 1-10-10 10 10 0 0 1 10-10 10 10 0 0 1 10 10z" fill="#00ff9e"/>
   <path d="m239.01 181.26c0.39582 0 0.80716-0.10866 1.1254-0.29492l-0.0699-0.21731c-0.33372 0.17074-0.68297 0.26387-0.98566 0.26387-0.84596 0-1.3815-0.65969-1.3815-1.6997s0.52775-1.6376 1.4203-1.6376c0.32597 0 0.64417 0.0776 0.93909 0.23283l0.0854-0.24836c-0.32597-0.1785-0.6597-0.26387-1.0167-0.26387-1.0633 0-1.7462 0.76835-1.7462 1.9791 0 1.1719 0.62089 1.886 1.6298 1.886zm3.2442-0.0466c0.20955 0 0.4191-0.0543 0.5976-0.12418l-0.0699-0.21731c-0.14746 0.0543-0.31044 0.0854-0.45014 0.0854-0.41134 0-0.68298-0.27164-0.68298-0.69074v-3.8883h-0.31044v3.9426c0 0.54328 0.36477 0.89253 0.91581 0.89253zm-1.4125-3.5003h1.8937v-0.25612h-1.8937zm3.0268 3.4692h0.31044v-2.9104l-0.0543-0.81492h-0.25611zm0.22507-2.6931c0.24059-0.47343 0.68298-0.76059 1.1642-0.76059 0.13193 0 0.2794 0.0233 0.40357 0.0699l0.0854-0.27164c-0.13194-0.0543-0.29493-0.0854-0.45791-0.0854-0.50447 0-0.94686 0.26388-1.1952 0.71402zm3.2286 2.7242c0.15522 0 0.32597-0.0388 0.45014-0.0931l-0.0698-0.21731c-0.0854 0.0388-0.19402 0.0621-0.29492 0.0621-0.28716 0-0.4579-0.20955-0.4579-0.53552v-4.9826h-0.30269v5.0292c0 0.45014 0.25612 0.7373 0.67522 0.7373z" fill="#4d4d4d" style="font-variation-settings:'wght' 300" aria-label="ctrl"/>
   <path d="m237.31 175.18h0.62089v-2.8716l-0.10866-0.86925h-0.51223zm0.48119-2.4292c0.21731-0.47343 0.66745-0.76059 1.1797-0.76059 0.14746 0 0.28716 0.0233 0.41134 0.0699l0.15522-0.57432c-0.16299-0.0543-0.32597-0.0854-0.49671-0.0854-0.50448 0-0.97014 0.27164-1.2495 0.72178zm4.1289 2.5068c0.42687 0 0.89253-0.1009 1.2263-0.2794l-0.1397-0.45015c-0.28716 0.1397-0.65193 0.22508-0.9779 0.22508-0.87701 0-1.397-0.58209-1.397-1.5522 0-0.84596 0.38029-1.3116 1.0633-1.3116 0.63641 0 1.009 0.41134 1.009 1.1254h-2.1809v0.46566h2.7319c0.0155-0.11641 0.031-0.38805 0.031-0.53551 0-0.9391-0.62089-1.5833-1.5445-1.5833-1.04 0-1.7462 0.81492-1.7462 1.9636 0 1.1952 0.7373 1.9325 1.9248 1.9325zm3.5468 0c0.92357 0 1.4901-0.43462 1.4901-1.1254 0-1.3737-2.2352-0.86149-2.2352-1.7074 0-0.32596 0.34925-0.53551 0.90805-0.53551 0.31821 0 0.69074 0.0699 1.009 0.1785l0.14746-0.50447c-0.31821-0.13194-0.6985-0.20179-1.0943-0.20179-0.97014 0-1.591 0.42686-1.591 1.1331 0 1.3427 2.2274 0.78388 2.2274 1.6997 0 0.34149-0.30268 0.53551-0.81491 0.53551-0.39582 0-0.92357-0.10865-1.3194-0.2794l-0.14746 0.50448c0.42686 0.19402 0.94685 0.30268 1.4203 0.30268zm4.1522 0c0.42686 0 0.89253-0.1009 1.2263-0.2794l-0.1397-0.45015c-0.28717 0.1397-0.65194 0.22508-0.9779 0.22508-0.87701 0-1.397-0.58209-1.397-1.5522 0-0.84596 0.38029-1.3116 1.0633-1.3116 0.63641 0 1.0089 0.41134 1.0089 1.1254h-2.1809v0.46566h2.7319c0.0155-0.11641 0.031-0.38805 0.031-0.53551 0-0.9391-0.62089-1.5833-1.5445-1.5833-1.04 0-1.7462 0.81492-1.7462 1.9636 0 1.1952 0.7373 1.9325 1.9248 1.9325zm3.6943-0.0388c0.25611 0 0.51223-0.0621 0.69074-0.1397l-0.1397-0.45014c-0.11642 0.0543-0.28716 0.0854-0.4191 0.0854-0.38806 0-0.64418-0.24835-0.64418-0.62089v-3.7486h-0.62088v3.834c0 0.62089 0.45014 1.04 1.1331 1.04zm-1.6376-3.2597h2.1498v-0.52h-2.1498z" fill="#4d4d4d" aria-label="reset"/>
  </g>
 </g>
</svg>
